<?xml version="1.0" encoding="UTF-8" standalone="no"?>
<!-- Generator: Adobe Illustrator 19.0.0, SVG Export Plug-In . SVG Version: 6.00 Build 0)  -->

<svg
   xmlns:dc="http://purl.org/dc/elements/1.1/"
   xmlns:cc="http://creativecommons.org/ns#"
   xmlns:rdf="http://www.w3.org/1999/02/22-rdf-syntax-ns#"
   xmlns:svg="http://www.w3.org/2000/svg"
   xmlns="http://www.w3.org/2000/svg"
   xmlns:sodipodi="http://sodipodi.sourceforge.net/DTD/sodipodi-0.dtd"
   xmlns:inkscape="http://www.inkscape.org/namespaces/inkscape"
   version="1.1"
   id="Capa_1"
   x="0px"
   y="0px"
   viewBox="0 0 496 496"
   style="enable-background:new 0 0 496 496;"
   xml:space="preserve"
   sodipodi:docname="ninja.svg"
   inkscape:version="0.92.2 (unknown)"><metadata
     id="metadata3833"><rdf:RDF><cc:Work
         rdf:about=""><dc:format>image/svg+xml</dc:format><dc:type
           rdf:resource="http://purl.org/dc/dcmitype/StillImage" /></cc:Work></rdf:RDF></metadata><defs
     id="defs3831" /><sodipodi:namedview
     pagecolor="#ffffff"
     bordercolor="#666666"
     borderopacity="1"
     objecttolerance="10"
     gridtolerance="10"
     guidetolerance="10"
     inkscape:pageopacity="0"
     inkscape:pageshadow="2"
     inkscape:window-width="1920"
     inkscape:window-height="1025"
     id="namedview3829"
     showgrid="false"
     inkscape:zoom="1.7560484"
     inkscape:cx="43.261705"
     inkscape:cy="248"
     inkscape:window-x="0"
     inkscape:window-y="27"
     inkscape:window-maximized="1"
     inkscape:current-layer="Capa_1" /><g
     id="g3796"
     style="fill:#2d3c49;fill-opacity:1"><g
       id="g3794"
       style="fill:#2d3c49;fill-opacity:1"><g
         id="g3792"
         style="fill:#2d3c49;fill-opacity:1"><rect
           x="280"
           y="120"
           width="48"
           height="16"
           id="rect3786"
           style="fill:#2d3c49;fill-opacity:1" /><rect
           x="168"
           y="120"
           width="48"
           height="16"
           id="rect3788"
           style="fill:#2d3c49;fill-opacity:1" /><path
           style="fill:#2d3c49;fill-opacity:1"
           d="M424,352h-16v-60.096c0-14.544-4.816-28.976-13.544-40.64c-8.824-11.752-21.456-20.448-35.576-24.48l-22.488-6.432     c12.064-11.544,21.88-25.392,28.712-40.864l2.84,1.424c17.672,8.832,37.248,13.376,56.888,13.376     c8.28,0,16.576-0.808,24.744-2.448l11.136-2.224l-5.84-9.736c-13.192-21.984-30.792-41.168-51.392-56.384     c5.2-2.392,10.016-5.672,14.184-9.84C426.904,104.408,432,92.112,432,79.032c0-13.128,4.344-26.144,12.216-36.656L464,16h-28.776     c-32.192,0-62.248,13.384-83.896,36.768C328.032,20.856,290.448,0,248,0c-67.88,0-123.432,53.152-127.592,120H120     c0,1.352,0.128,2.664,0.2,4c-0.04,1.336-0.2,2.648-0.2,4c0,36.296,15.256,69.04,39.616,92.36l-22.488,6.432     c-14.128,4.032-26.76,12.728-35.584,24.488C92.816,262.928,88,277.36,88,291.904V352H72c-39.704,0-72,32.296-72,72     c0,39.704,32.296,72,72,72h136h8h40h24h16h128c39.704,0,72-32.296,72-72C496,384.296,463.704,352,424,352z M434.496,177.864     c-20.352,1.768-41.064-2.096-59.408-11.264l-4.44-2.216C374.088,152.84,376,140.64,376,128h5.576     C402.392,140.816,420.512,157.84,434.496,177.864z M431.96,32.056l-0.536,0.728C421.48,46.04,416,62.472,416,79.032     c0,8.68-3.52,17.176-9.656,23.312C400.2,108.48,391.712,112,383.032,112h-8.144c-2.04-16.232-7.032-31.552-14.576-45.312     C378.376,45.488,404.128,32.96,431.96,32.056z M248,16c44.568,0,83.016,26.224,101.04,64H146.96     C164.984,42.224,203.432,16,248,16z M140.712,96H355.28c2.664,8.92,4.176,18.312,4.52,28c-2.072,29.008-26.272,52-55.8,52     c-20.344,0-39.12-11.08-49-28.912l-7-12.632l-7,12.632C231.12,164.92,212.344,176,192,176c-29.528,0-53.728-22.992-55.8-52     C136.544,114.312,138.048,104.92,140.712,96z M147.024,176.136C159.36,186.04,174.984,192,192,192     c21.936,0,42.464-10.016,56-26.776C261.536,181.984,282.064,192,304,192c17.008,0,32.64-5.96,44.976-15.864     C330.928,213.832,292.512,240,248,240c-16.928,0-32.92-3.88-47.32-10.632l-0.264-0.264l-0.096,0.096     C177.016,218.168,158.152,199.384,147.024,176.136z M270.848,253.84L248,276.688l-22.848-22.848     c7.424,1.344,15.04,2.16,22.848,2.16C255.808,256,263.416,255.184,270.848,253.84z M200,480H72c-30.872,0-56-25.128-56-56     s25.128-56,56-56h16.84c1.776,9.664,6.4,18.56,13.504,25.656c9.248,9.248,21.544,14.344,34.624,14.344H200V480z M168,328v-40h-16     v56h48v48h-63.032c-8.68,0-17.168-3.52-23.312-9.656C107.52,376.2,104,367.712,104,359.032v-67.128     c0-11.112,3.672-22.136,10.344-31.032c6.736-8.984,16.392-15.616,27.168-18.696l1.048-0.304l109.384,109.384     c-1.424,1.16-2.744,2.416-3.952,3.792C242.128,348.336,233.6,344,224,344h-8v-16H168z M240,376c0,8.824-7.184,16-16,16h-8v-32h8     C232.816,360,240,367.176,240,376z M224.208,480H216v-24v-24h8.208c-5.08,6.704-8.208,14.96-8.208,24     C216,465.04,219.128,473.296,224.208,480z M280,480h-24c-13.232,0-24-10.768-24-24s10.768-24,24-24h24V480z M280,416h-24h-40v-8     h8c9.6,0,18.128-4.336,24-11.056c5.872,6.72,14.392,11.056,24,11.056h8V416z M280,392h-8c-8.824,0-16-7.176-16-16     c0-8.824,7.176-16,16-16h8V392z M280,344h-8c-1.456,0-2.848,0.24-4.256,0.432L160.16,236.848l14.464-4.136     c5.256,3.704,10.824,6.96,16.624,9.848L280,331.312V344z M283.312,312l10.344-10.344l-11.312-11.312L272,300.688L259.312,288     l45.44-45.44c5.8-2.888,11.36-6.144,16.624-9.84l14.464,4.128l-42.52,42.52l11.312,11.312l48.8-48.8l1.048,0.304     c10.784,3.08,20.44,9.712,27.176,18.688C388.328,269.776,392,280.8,392,291.904v67.128c0,8.68-3.52,17.168-9.656,23.312     C376.2,388.48,367.712,392,359.032,392H296v-48h48v-56h-16v40h-28.688L283.312,312z M424,480H296v-64v-8h63.032     c13.08,0,25.376-5.096,34.624-14.344c7.096-7.096,11.72-15.992,13.504-25.656H424c30.872,0,56,25.128,56,56S454.872,480,424,480z     "
           id="path3790" /></g></g></g><g
     id="g3798" /><g
     id="g3800" /><g
     id="g3802" /><g
     id="g3804" /><g
     id="g3806" /><g
     id="g3808" /><g
     id="g3810" /><g
     id="g3812" /><g
     id="g3814" /><g
     id="g3816" /><g
     id="g3818" /><g
     id="g3820" /><g
     id="g3822" /><g
     id="g3824" /><g
     id="g3826" /></svg>